<svg width="400" height="191" viewBox="0 0 400 191" fill="none" xmlns="http://www.w3.org/2000/svg">
<rect x="35" y="96" width="321" height="71" fill="#232323" stroke="#F4F4F4" stroke-width="2"/>
<path d="M72.684 96.936C68.316 96.936 64.598 96.208 61.53 94.752C58.514 93.296 55.992 91.424 53.964 89.136L60.75 81.648C62.31 83.468 64.13 84.898 66.21 85.938C68.342 86.926 70.5 87.42 72.684 87.42C75.44 87.42 77.494 86.822 78.846 85.626C80.198 84.378 80.874 82.74 80.874 80.712V79.854C80.874 77.67 80.302 76.084 79.158 75.096C78.066 74.108 76.272 73.614 73.776 73.614H66.288V64.176H73.776C75.908 64.176 77.468 63.578 78.456 62.382C79.444 61.186 79.938 59.522 79.938 57.39V56.688C79.938 52.268 77.468 50.058 72.528 50.058C70.188 50.058 68.16 50.552 66.444 51.54C64.728 52.476 63.116 53.776 61.608 55.44L54.978 48.576C57.318 46.08 59.944 44.13 62.856 42.726C65.768 41.322 69.278 40.62 73.386 40.62C79.47 40.62 84.15 41.92 87.426 44.52C90.754 47.12 92.418 50.942 92.418 55.986C92.418 59.21 91.378 61.862 89.298 63.942C87.27 65.97 84.54 67.27 81.108 67.842V68.31C82.876 68.414 84.488 68.752 85.944 69.324C87.452 69.844 88.752 70.598 89.844 71.586C90.936 72.522 91.794 73.692 92.418 75.096C93.042 76.5 93.354 78.138 93.354 80.01C93.354 82.61 92.86 84.95 91.872 87.03C90.884 89.11 89.48 90.878 87.66 92.334C85.892 93.79 83.734 94.934 81.186 95.766C78.638 96.546 75.804 96.936 72.684 96.936ZM98.6275 86.406H102.528C103.412 85.418 104.244 84.144 105.024 82.584C105.804 80.972 106.454 78.97 106.974 76.578C107.546 74.134 107.988 71.274 108.3 67.998C108.612 64.67 108.768 60.822 108.768 56.454V41.556H138.018V86.406H143.244V107.7H132.48V96H109.392V107.7H98.6275V86.406ZM126.708 50.838H118.986V58.17C118.986 62.018 118.856 65.45 118.596 68.466C118.388 71.43 118.076 74.056 117.66 76.344C117.244 78.58 116.724 80.53 116.1 82.194C115.528 83.858 114.878 85.262 114.15 86.406H126.708V50.838ZM150.779 96V41.556H185.567V51.15H162.479V63.63H184.787V73.224H162.479V86.406H185.567V96H150.779ZM215.957 96.936C208.677 96.936 203.269 94.492 199.733 89.604C196.249 84.664 194.507 77.722 194.507 68.778C194.507 59.834 196.249 52.918 199.733 48.03C203.269 43.09 208.677 40.62 215.957 40.62C218.765 40.62 221.235 41.01 223.367 41.79C225.551 42.518 227.423 43.558 228.983 44.91C230.543 46.262 231.817 47.9 232.805 49.824C233.845 51.748 234.651 53.906 235.223 56.298L224.303 58.95C223.991 57.65 223.627 56.454 223.211 55.362C222.795 54.27 222.249 53.334 221.573 52.554C220.949 51.774 220.143 51.176 219.155 50.76C218.219 50.292 217.075 50.058 215.723 50.058C212.551 50.058 210.289 51.306 208.937 53.802C207.637 56.246 206.987 59.652 206.987 64.02V73.536C206.987 77.904 207.637 81.336 208.937 83.832C210.289 86.276 212.551 87.498 215.723 87.498C218.427 87.498 220.377 86.666 221.573 85.002C222.821 83.338 223.731 81.206 224.303 78.606L235.223 81.258C234.651 83.65 233.845 85.808 232.805 87.732C231.817 89.656 230.543 91.32 228.983 92.724C227.423 94.076 225.551 95.116 223.367 95.844C221.235 96.572 218.765 96.936 215.957 96.936ZM243.382 41.556H255.16V61.212H265.378C270.474 61.212 274.504 62.772 277.468 65.892C280.432 68.96 281.914 73.198 281.914 78.606C281.914 81.258 281.524 83.65 280.744 85.782C279.964 87.914 278.846 89.76 277.39 91.32C275.986 92.828 274.27 93.998 272.242 94.83C270.214 95.61 267.926 96 265.378 96H243.382V41.556ZM263.194 86.796C267.51 86.796 269.668 84.872 269.668 81.024V76.188C269.668 72.34 267.51 70.416 263.194 70.416H255.16V86.796H263.194ZM61.535 142.42C58.805 142.42 56.6467 141.545 55.06 139.795C53.4733 138.045 52.68 135.525 52.68 132.235C52.68 129.482 52.8783 127.113 53.275 125.13C53.6717 123.147 54.3017 121.502 55.165 120.195C56.0517 118.888 57.195 117.908 58.595 117.255C60.0183 116.602 61.745 116.228 63.775 116.135L69.2 115.89V120.58L64.3 120.755C63.11 120.802 62.1183 120.977 61.325 121.28C60.555 121.56 59.9367 121.992 59.47 122.575C59.0267 123.158 58.7 123.905 58.49 124.815C58.3033 125.702 58.1867 126.775 58.14 128.035H58.385C58.7817 126.868 59.3767 125.982 60.17 125.375C60.9867 124.745 62.025 124.43 63.285 124.43C64.335 124.43 65.2917 124.617 66.155 124.99C67.0183 125.363 67.765 125.912 68.395 126.635C69.025 127.335 69.5033 128.222 69.83 129.295C70.18 130.345 70.355 131.57 70.355 132.97C70.355 134.44 70.145 135.758 69.725 136.925C69.3283 138.092 68.745 139.083 67.975 139.9C67.2283 140.717 66.3067 141.347 65.21 141.79C64.1133 142.21 62.8883 142.42 61.535 142.42ZM61.535 138.57C62.585 138.57 63.425 138.208 64.055 137.485C64.685 136.762 65 135.805 65 134.615V131.885C65 130.695 64.6967 129.797 64.09 129.19C63.4833 128.583 62.6317 128.28 61.535 128.28C60.4617 128.28 59.61 128.642 58.98 129.365C58.3733 130.088 58.07 131.115 58.07 132.445V134.405C58.07 135.735 58.3733 136.762 58.98 137.485C59.61 138.208 60.4617 138.57 61.535 138.57ZM87.0363 123.94H92.3213L83.8163 144.905C83.2797 146.235 82.568 147.25 81.6813 147.95C80.7947 148.65 79.5813 149 78.0413 149H74.4713V144.975H78.8113L79.9313 141.895L72.6513 123.94H78.2163L80.8413 131.535L82.4863 136.785H82.7663L84.3413 131.535L87.0363 123.94ZM93.3227 137.975H95.4227C96.0293 137.065 96.5077 135.91 96.8577 134.51C97.2077 133.087 97.3827 131.407 97.3827 129.47V123.94H110.578V137.975H113.378V146.9H108.688V142H98.0127V146.9H93.3227V137.975ZM105.573 137.975V127.965H102.038V129.61C102.038 131.43 101.909 133.052 101.653 134.475C101.396 135.898 101.034 137.065 100.568 137.975H105.573ZM124.949 142.42C121.916 142.42 119.617 141.58 118.054 139.9C116.491 138.22 115.709 135.933 115.709 133.04C115.709 131.57 115.907 130.252 116.304 129.085C116.724 127.895 117.307 126.892 118.054 126.075C118.824 125.235 119.746 124.605 120.819 124.185C121.916 123.742 123.141 123.52 124.494 123.52C125.847 123.52 127.061 123.742 128.134 124.185C129.207 124.605 130.117 125.212 130.864 126.005C131.611 126.798 132.182 127.767 132.579 128.91C132.999 130.03 133.209 131.29 133.209 132.69V134.23H120.854V134.545C120.854 135.712 121.216 136.657 121.939 137.38C122.662 138.08 123.724 138.43 125.124 138.43C126.197 138.43 127.119 138.232 127.889 137.835C128.659 137.415 129.324 136.867 129.884 136.19L132.684 139.235C131.984 140.098 131.004 140.845 129.744 141.475C128.484 142.105 126.886 142.42 124.949 142.42ZM124.529 127.23C123.409 127.23 122.511 127.58 121.834 128.28C121.181 128.957 120.854 129.878 120.854 131.045V131.325H128.134V131.045C128.134 129.855 127.807 128.922 127.154 128.245C126.524 127.568 125.649 127.23 124.529 127.23ZM142.89 127.965H136.94V123.94H153.95V127.965H148V142H142.89V127.965ZM179.298 123.94H184.478V130.835H190.358V123.94H195.538V142H190.358V134.86H184.478V142H179.298V123.94ZM214.949 142C213.876 142 213.013 141.732 212.359 141.195C211.706 140.635 211.321 139.842 211.204 138.815H211.029C210.703 140.005 210.049 140.903 209.069 141.51C208.113 142.117 206.934 142.42 205.534 142.42C203.784 142.42 202.373 141.953 201.299 141.02C200.249 140.063 199.724 138.733 199.724 137.03C199.724 135.14 200.413 133.74 201.789 132.83C203.166 131.92 205.184 131.465 207.844 131.465H210.749V130.555C210.749 129.482 210.493 128.677 209.979 128.14C209.489 127.58 208.649 127.3 207.459 127.3C206.363 127.3 205.476 127.51 204.799 127.93C204.123 128.35 203.539 128.898 203.049 129.575L200.214 127.055C200.821 126.028 201.766 125.188 203.049 124.535C204.356 123.858 206.024 123.52 208.054 123.52C210.528 123.52 212.453 124.092 213.829 125.235C215.229 126.355 215.929 128.058 215.929 130.345V138.255H217.924V142H214.949ZM207.494 139.025C208.404 139.025 209.174 138.803 209.804 138.36C210.434 137.917 210.749 137.275 210.749 136.435V134.265H207.984C205.861 134.265 204.799 134.977 204.799 136.4V137.1C204.799 137.73 205.044 138.208 205.534 138.535C206.024 138.862 206.678 139.025 207.494 139.025ZM229.006 142.42C227.116 142.42 225.447 142.117 224.001 141.51C222.554 140.903 221.446 140.087 220.676 139.06L223.651 136.295C224.351 137.065 225.121 137.637 225.961 138.01C226.801 138.383 227.862 138.57 229.146 138.57C230.219 138.57 231.036 138.383 231.596 138.01C232.156 137.637 232.436 137.135 232.436 136.505V136.295C232.436 135.222 231.782 134.685 230.476 134.685H226.241V131.255H230.021C230.767 131.255 231.292 131.103 231.596 130.8C231.922 130.473 232.086 130.042 232.086 129.505V129.295C232.086 128.758 231.817 128.303 231.281 127.93C230.767 127.557 229.974 127.37 228.901 127.37C227.851 127.37 226.941 127.545 226.171 127.895C225.424 128.222 224.712 128.735 224.036 129.435L221.166 126.775C222.122 125.748 223.231 124.955 224.491 124.395C225.774 123.812 227.396 123.52 229.356 123.52C230.616 123.52 231.736 123.648 232.716 123.905C233.696 124.138 234.524 124.477 235.201 124.92C235.901 125.363 236.426 125.888 236.776 126.495C237.126 127.078 237.301 127.72 237.301 128.42C237.301 129.54 236.951 130.45 236.251 131.15C235.574 131.827 234.676 132.27 233.556 132.48V132.655C234.746 132.842 235.726 133.308 236.496 134.055C237.266 134.802 237.651 135.77 237.651 136.96C237.651 138.593 236.916 139.912 235.446 140.915C233.976 141.918 231.829 142.42 229.006 142.42ZM242.677 123.94H253.002C254.682 123.94 255.965 124.36 256.852 125.2C257.739 126.04 258.182 127.16 258.182 128.56C258.182 129.587 257.879 130.438 257.272 131.115C256.689 131.792 255.72 132.258 254.367 132.515V132.69C255.814 132.807 256.922 133.203 257.692 133.88C258.485 134.557 258.882 135.49 258.882 136.68C258.882 138.313 258.369 139.608 257.342 140.565C256.315 141.522 254.892 142 253.072 142H242.677V123.94ZM252.162 138.325C253.189 138.325 253.702 137.835 253.702 136.855V136.015C253.702 135.502 253.562 135.128 253.282 134.895C253.002 134.638 252.629 134.51 252.162 134.51H247.717V138.325H252.162ZM251.532 131.43C251.999 131.43 252.36 131.302 252.617 131.045C252.874 130.765 253.002 130.38 253.002 129.89V129.155C253.002 128.665 252.874 128.292 252.617 128.035C252.36 127.755 251.999 127.615 251.532 127.615H247.717V131.43H251.532ZM277.908 142C276.835 142 275.972 141.732 275.318 141.195C274.665 140.635 274.28 139.842 274.163 138.815H273.988C273.662 140.005 273.008 140.903 272.028 141.51C271.072 142.117 269.893 142.42 268.493 142.42C266.743 142.42 265.332 141.953 264.258 141.02C263.208 140.063 262.683 138.733 262.683 137.03C262.683 135.14 263.372 133.74 264.748 132.83C266.125 131.92 268.143 131.465 270.803 131.465H273.708V130.555C273.708 129.482 273.452 128.677 272.938 128.14C272.448 127.58 271.608 127.3 270.418 127.3C269.322 127.3 268.435 127.51 267.758 127.93C267.082 128.35 266.498 128.898 266.008 129.575L263.173 127.055C263.78 126.028 264.725 125.188 266.008 124.535C267.315 123.858 268.983 123.52 271.013 123.52C273.487 123.52 275.412 124.092 276.788 125.235C278.188 126.355 278.888 128.058 278.888 130.345V138.255H280.883V142H277.908ZM270.453 139.025C271.363 139.025 272.133 138.803 272.763 138.36C273.393 137.917 273.708 137.275 273.708 136.435V134.265H270.943C268.82 134.265 267.758 134.977 267.758 136.4V137.1C267.758 137.73 268.003 138.208 268.493 138.535C268.983 138.862 269.637 139.025 270.453 139.025ZM284.23 123.94H289.41V130.835H295.29V123.94H300.47V142H295.29V134.86H289.41V142H284.23V123.94ZM305.216 123.94H310.256V129.75L309.836 135.07H310.046L316.591 123.94H321.456V142H316.416V136.19L316.836 130.87H316.626L310.081 142H305.216V123.94ZM334.812 142.42C331.779 142.42 329.481 141.58 327.917 139.9C326.354 138.22 325.572 135.933 325.572 133.04C325.572 131.57 325.771 130.252 326.167 129.085C326.587 127.895 327.171 126.892 327.917 126.075C328.687 125.235 329.609 124.605 330.682 124.185C331.779 123.742 333.004 123.52 334.357 123.52C335.711 123.52 336.924 123.742 337.997 124.185C339.071 124.605 339.981 125.212 340.727 126.005C341.474 126.798 342.046 127.767 342.442 128.91C342.862 130.03 343.072 131.29 343.072 132.69V134.23H330.717V134.545C330.717 135.712 331.079 136.657 331.802 137.38C332.526 138.08 333.587 138.43 334.987 138.43C336.061 138.43 336.982 138.232 337.752 137.835C338.522 137.415 339.187 136.867 339.747 136.19L342.547 139.235C341.847 140.098 340.867 140.845 339.607 141.475C338.347 142.105 336.749 142.42 334.812 142.42ZM334.392 127.23C333.272 127.23 332.374 127.58 331.697 128.28C331.044 128.957 330.717 129.878 330.717 131.045V131.325H337.997V131.045C337.997 129.855 337.671 128.922 337.017 128.245C336.387 127.568 335.512 127.23 334.392 127.23Z" fill="#F4F4F4"/>
<circle cx="122.5" cy="26.5" r="12.5" fill="#F4F4F4"/>
</svg>
