<svg width="400" height="191" viewBox="0 0 400 191" fill="none" xmlns="http://www.w3.org/2000/svg">
<rect x="35" y="96" width="321" height="71" fill="#232323" stroke="#F4F4F4" stroke-width="2"/>
<path d="M72.684 96.936C68.316 96.936 64.598 96.208 61.53 94.752C58.514 93.296 55.992 91.424 53.964 89.136L60.75 81.648C62.31 83.468 64.13 84.898 66.21 85.938C68.342 86.926 70.5 87.42 72.684 87.42C75.44 87.42 77.494 86.822 78.846 85.626C80.198 84.378 80.874 82.74 80.874 80.712V79.854C80.874 77.67 80.302 76.084 79.158 75.096C78.066 74.108 76.272 73.614 73.776 73.614H66.288V64.176H73.776C75.908 64.176 77.468 63.578 78.456 62.382C79.444 61.186 79.938 59.522 79.938 57.39V56.688C79.938 52.268 77.468 50.058 72.528 50.058C70.188 50.058 68.16 50.552 66.444 51.54C64.728 52.476 63.116 53.776 61.608 55.44L54.978 48.576C57.318 46.08 59.944 44.13 62.856 42.726C65.768 41.322 69.278 40.62 73.386 40.62C79.47 40.62 84.15 41.92 87.426 44.52C90.754 47.12 92.418 50.942 92.418 55.986C92.418 59.21 91.378 61.862 89.298 63.942C87.27 65.97 84.54 67.27 81.108 67.842V68.31C82.876 68.414 84.488 68.752 85.944 69.324C87.452 69.844 88.752 70.598 89.844 71.586C90.936 72.522 91.794 73.692 92.418 75.096C93.042 76.5 93.354 78.138 93.354 80.01C93.354 82.61 92.86 84.95 91.872 87.03C90.884 89.11 89.48 90.878 87.66 92.334C85.892 93.79 83.734 94.934 81.186 95.766C78.638 96.546 75.804 96.936 72.684 96.936ZM98.6275 86.406H102.528C103.412 85.418 104.244 84.144 105.024 82.584C105.804 80.972 106.454 78.97 106.974 76.578C107.546 74.134 107.988 71.274 108.3 67.998C108.612 64.67 108.768 60.822 108.768 56.454V41.556H138.018V86.406H143.244V107.7H132.48V96H109.392V107.7H98.6275V86.406ZM126.708 50.838H118.986V58.17C118.986 62.018 118.856 65.45 118.596 68.466C118.388 71.43 118.076 74.056 117.66 76.344C117.244 78.58 116.724 80.53 116.1 82.194C115.528 83.858 114.878 85.262 114.15 86.406H126.708V50.838ZM150.779 96V41.556H185.567V51.15H162.479V63.63H184.787V73.224H162.479V86.406H185.567V96H150.779ZM215.957 96.936C208.677 96.936 203.269 94.492 199.733 89.604C196.249 84.664 194.507 77.722 194.507 68.778C194.507 59.834 196.249 52.918 199.733 48.03C203.269 43.09 208.677 40.62 215.957 40.62C218.765 40.62 221.235 41.01 223.367 41.79C225.551 42.518 227.423 43.558 228.983 44.91C230.543 46.262 231.817 47.9 232.805 49.824C233.845 51.748 234.651 53.906 235.223 56.298L224.303 58.95C223.991 57.65 223.627 56.454 223.211 55.362C222.795 54.27 222.249 53.334 221.573 52.554C220.949 51.774 220.143 51.176 219.155 50.76C218.219 50.292 217.075 50.058 215.723 50.058C212.551 50.058 210.289 51.306 208.937 53.802C207.637 56.246 206.987 59.652 206.987 64.02V73.536C206.987 77.904 207.637 81.336 208.937 83.832C210.289 86.276 212.551 87.498 215.723 87.498C218.427 87.498 220.377 86.666 221.573 85.002C222.821 83.338 223.731 81.206 224.303 78.606L235.223 81.258C234.651 83.65 233.845 85.808 232.805 87.732C231.817 89.656 230.543 91.32 228.983 92.724C227.423 94.076 225.551 95.116 223.367 95.844C221.235 96.572 218.765 96.936 215.957 96.936ZM243.382 41.556H255.16V61.212H265.378C270.474 61.212 274.504 62.772 277.468 65.892C280.432 68.96 281.914 73.198 281.914 78.606C281.914 81.258 281.524 83.65 280.744 85.782C279.964 87.914 278.846 89.76 277.39 91.32C275.986 92.828 274.27 93.998 272.242 94.83C270.214 95.61 267.926 96 265.378 96H243.382V41.556ZM263.194 86.796C267.51 86.796 269.668 84.872 269.668 81.024V76.188C269.668 72.34 267.51 70.416 263.194 70.416H255.16V86.796H263.194Z" fill="#F4F4F4"/>
<path d="M51.03 143.36C48.69 143.36 46.84 142.61 45.48 141.11C44.12 139.61 43.44 137.45 43.44 134.63C43.44 132.27 43.61 130.24 43.95 128.54C44.29 126.84 44.83 125.43 45.57 124.31C46.33 123.19 47.31 122.35 48.51 121.79C49.73 121.23 51.21 120.91 52.95 120.83L57.6 120.62V124.64L53.4 124.79C52.38 124.83 51.53 124.98 50.85 125.24C50.19 125.48 49.66 125.85 49.26 126.35C48.88 126.85 48.6 127.49 48.42 128.27C48.26 129.03 48.16 129.95 48.12 131.03H48.33C48.67 130.03 49.18 129.27 49.86 128.75C50.56 128.21 51.45 127.94 52.53 127.94C53.43 127.94 54.25 128.1 54.99 128.42C55.73 128.74 56.37 129.21 56.91 129.83C57.45 130.43 57.86 131.19 58.14 132.11C58.44 133.01 58.59 134.06 58.59 135.26C58.59 136.52 58.41 137.65 58.05 138.65C57.71 139.65 57.21 140.5 56.55 141.2C55.91 141.9 55.12 142.44 54.18 142.82C53.24 143.18 52.19 143.36 51.03 143.36ZM51.03 140.06C51.93 140.06 52.65 139.75 53.19 139.13C53.73 138.51 54 137.69 54 136.67V134.33C54 133.31 53.74 132.54 53.22 132.02C52.7 131.5 51.97 131.24 51.03 131.24C50.11 131.24 49.38 131.55 48.84 132.17C48.32 132.79 48.06 133.67 48.06 134.81V136.49C48.06 137.63 48.32 138.51 48.84 139.13C49.38 139.75 50.11 140.06 51.03 140.06ZM72.8883 127.52H77.4183L70.1283 145.49C69.6683 146.63 69.0583 147.5 68.2983 148.1C67.5383 148.7 66.4983 149 65.1783 149H62.1183V145.55H65.8383L66.7983 142.91L60.5583 127.52H65.3283L67.5783 134.03L68.9883 138.53H69.2283L70.5783 134.03L72.8883 127.52ZM78.2766 139.55H80.0766C80.5966 138.77 81.0066 137.78 81.3066 136.58C81.6066 135.36 81.7566 133.92 81.7566 132.26V127.52H93.0666V139.55H95.4666V147.2H91.4466V143H82.2966V147.2H78.2766V139.55ZM88.7766 139.55V130.97H85.7466V132.38C85.7466 133.94 85.6366 135.33 85.4166 136.55C85.1966 137.77 84.8866 138.77 84.4866 139.55H88.7766ZM105.385 143.36C102.785 143.36 100.815 142.64 99.4748 141.2C98.1348 139.76 97.4648 137.8 97.4648 135.32C97.4648 134.06 97.6348 132.93 97.9748 131.93C98.3348 130.91 98.8348 130.05 99.4748 129.35C100.135 128.63 100.925 128.09 101.845 127.73C102.785 127.35 103.835 127.16 104.995 127.16C106.155 127.16 107.195 127.35 108.115 127.73C109.035 128.09 109.815 128.61 110.455 129.29C111.095 129.97 111.585 130.8 111.925 131.78C112.285 132.74 112.465 133.82 112.465 135.02V136.34H101.875V136.61C101.875 137.61 102.185 138.42 102.805 139.04C103.425 139.64 104.335 139.94 105.535 139.94C106.455 139.94 107.245 139.77 107.905 139.43C108.565 139.07 109.135 138.6 109.615 138.02L112.015 140.63C111.415 141.37 110.575 142.01 109.495 142.55C108.415 143.09 107.045 143.36 105.385 143.36ZM105.025 130.34C104.065 130.34 103.295 130.64 102.715 131.24C102.155 131.82 101.875 132.61 101.875 133.61V133.85H108.115V133.61C108.115 132.59 107.835 131.79 107.275 131.21C106.735 130.63 105.985 130.34 105.025 130.34ZM120.763 130.97H115.663V127.52H130.243V130.97H125.143V143H120.763V130.97ZM151.97 127.52H165.89V143H161.45V130.97H156.41V143H151.97V127.52ZM180.818 127.52H185.348L178.058 145.49C177.598 146.63 176.988 147.5 176.228 148.1C175.468 148.7 174.428 149 173.108 149H170.048V145.55H173.768L174.728 142.91L168.488 127.52H173.258L175.508 134.03L176.918 138.53H177.158L178.508 134.03L180.818 127.52ZM192.716 130.97H187.616V127.52H202.196V130.97H197.096V143H192.716V130.97ZM213.315 143.36C210.715 143.36 208.745 142.64 207.405 141.2C206.065 139.76 205.395 137.8 205.395 135.32C205.395 134.06 205.565 132.93 205.905 131.93C206.265 130.91 206.765 130.05 207.405 129.35C208.065 128.63 208.855 128.09 209.775 127.73C210.715 127.35 211.765 127.16 212.925 127.16C214.085 127.16 215.125 127.35 216.045 127.73C216.965 128.09 217.745 128.61 218.385 129.29C219.025 129.97 219.515 130.8 219.855 131.78C220.215 132.74 220.395 133.82 220.395 135.02V136.34H209.805V136.61C209.805 137.61 210.115 138.42 210.735 139.04C211.355 139.64 212.265 139.94 213.465 139.94C214.385 139.94 215.175 139.77 215.835 139.43C216.495 139.07 217.065 138.6 217.545 138.02L219.945 140.63C219.345 141.37 218.505 142.01 217.425 142.55C216.345 143.09 214.975 143.36 213.315 143.36ZM212.955 130.34C211.995 130.34 211.225 130.64 210.645 131.24C210.085 131.82 209.805 132.61 209.805 133.61V133.85H216.045V133.61C216.045 132.59 215.765 131.79 215.205 131.21C214.665 130.63 213.915 130.34 212.955 130.34ZM222.783 127.52H226.353V139.76H229.083V127.52H232.653V139.76H235.383V127.52H238.953V143H222.783V127.52ZM249.291 143.36C246.691 143.36 244.721 142.64 243.381 141.2C242.041 139.76 241.371 137.8 241.371 135.32C241.371 134.06 241.541 132.93 241.881 131.93C242.241 130.91 242.741 130.05 243.381 129.35C244.041 128.63 244.831 128.09 245.751 127.73C246.691 127.35 247.741 127.16 248.901 127.16C250.061 127.16 251.101 127.35 252.021 127.73C252.941 128.09 253.721 128.61 254.361 129.29C255.001 129.97 255.491 130.8 255.831 131.78C256.191 132.74 256.371 133.82 256.371 135.02V136.34H245.781V136.61C245.781 137.61 246.091 138.42 246.711 139.04C247.331 139.64 248.241 139.94 249.441 139.94C250.361 139.94 251.151 139.77 251.811 139.43C252.471 139.07 253.041 138.6 253.521 138.02L255.921 140.63C255.321 141.37 254.481 142.01 253.401 142.55C252.321 143.09 250.951 143.36 249.291 143.36ZM248.931 130.34C247.971 130.34 247.201 130.64 246.621 131.24C246.061 131.82 245.781 132.61 245.781 133.61V133.85H252.021V133.61C252.021 132.59 251.741 131.79 251.181 131.21C250.641 130.63 249.891 130.34 248.931 130.34ZM267.489 143.36C266.269 143.36 265.169 143.18 264.189 142.82C263.229 142.44 262.409 141.9 261.729 141.2C261.069 140.5 260.559 139.65 260.199 138.65C259.839 137.65 259.659 136.52 259.659 135.26C259.659 134 259.839 132.87 260.199 131.87C260.559 130.87 261.069 130.02 261.729 129.32C262.409 128.62 263.229 128.09 264.189 127.73C265.169 127.35 266.259 127.16 267.459 127.16C269.159 127.16 270.519 127.51 271.539 128.21C272.579 128.89 273.369 129.8 273.909 130.94L270.489 132.8C270.209 132.2 269.839 131.7 269.379 131.3C268.939 130.9 268.299 130.7 267.459 130.7C266.439 130.7 265.649 131 265.089 131.6C264.549 132.18 264.279 132.98 264.279 134V136.52C264.279 137.54 264.549 138.35 265.089 138.95C265.649 139.53 266.459 139.82 267.519 139.82C268.379 139.82 269.049 139.62 269.529 139.22C270.029 138.82 270.449 138.3 270.789 137.66L274.149 139.58C273.589 140.72 272.769 141.64 271.689 142.34C270.629 143.02 269.229 143.36 267.489 143.36ZM282.658 130.97H277.558V127.52H292.138V130.97H287.038V143H282.658V130.97ZM296.236 127.52H305.086C306.526 127.52 307.626 127.88 308.386 128.6C309.146 129.32 309.526 130.28 309.526 131.48C309.526 132.36 309.266 133.09 308.746 133.67C308.246 134.25 307.416 134.65 306.256 134.87V135.02C307.496 135.12 308.446 135.46 309.106 136.04C309.786 136.62 310.126 137.42 310.126 138.44C310.126 139.84 309.686 140.95 308.806 141.77C307.926 142.59 306.706 143 305.146 143H296.236V127.52ZM304.366 139.85C305.246 139.85 305.686 139.43 305.686 138.59V137.87C305.686 137.43 305.566 137.11 305.326 136.91C305.086 136.69 304.766 136.58 304.366 136.58H300.556V139.85H304.366ZM303.826 133.94C304.226 133.94 304.536 133.83 304.756 133.61C304.976 133.37 305.086 133.04 305.086 132.62V131.99C305.086 131.57 304.976 131.25 304.756 131.03C304.536 130.79 304.226 130.67 303.826 130.67H300.556V133.94H303.826ZM313.864 127.52H318.184V132.5L317.824 137.06H318.004L323.614 127.52H327.784V143H323.464V138.02L323.824 133.46H323.644L318.034 143H313.864V127.52ZM339.233 143.36C336.633 143.36 334.663 142.64 333.323 141.2C331.983 139.76 331.313 137.8 331.313 135.32C331.313 134.06 331.483 132.93 331.823 131.93C332.183 130.91 332.683 130.05 333.323 129.35C333.983 128.63 334.773 128.09 335.693 127.73C336.633 127.35 337.683 127.16 338.843 127.16C340.003 127.16 341.043 127.35 341.963 127.73C342.883 128.09 343.663 128.61 344.303 129.29C344.943 129.97 345.433 130.8 345.773 131.78C346.133 132.74 346.313 133.82 346.313 135.02V136.34H335.723V136.61C335.723 137.61 336.033 138.42 336.653 139.04C337.273 139.64 338.183 139.94 339.383 139.94C340.303 139.94 341.093 139.77 341.753 139.43C342.413 139.07 342.983 138.6 343.463 138.02L345.863 140.63C345.263 141.37 344.423 142.01 343.343 142.55C342.263 143.09 340.893 143.36 339.233 143.36ZM338.873 130.34C337.913 130.34 337.143 130.64 336.563 131.24C336.003 131.82 335.723 132.61 335.723 133.61V133.85H341.963V133.61C341.963 132.59 341.683 131.79 341.123 131.21C340.583 130.63 339.833 130.34 338.873 130.34Z" fill="#F4F4F4"/>
<circle cx="122.5" cy="26.5" r="12.5" fill="#F4F4F4"/>
</svg>
