<svg width="600" height="600" viewBox="0 0 600 600" fill="none" xmlns="http://www.w3.org/2000/svg">
<rect x="135.76" y="446.151" width="341" height="14" fill="#232323" stroke="#232323"/>
<rect x="151.76" y="470.151" width="83" height="14" fill="#232323" stroke="#232323"/>
<rect x="264.76" y="470.151" width="196" height="14" fill="#232323" stroke="#232323"/>
<rect x="320.76" y="494.151" width="118" height="14" fill="#232323" stroke="#232323"/>
<rect x="247.76" y="518.151" width="118" height="14" fill="#232323" stroke="#232323"/>
<rect x="355.76" y="422.151" width="14" height="14" fill="#232323" stroke="#232323"/>
<rect x="403.76" y="422.151" width="14" height="14" fill="#232323" stroke="#232323"/>
<rect x="379.76" y="401.151" width="14" height="14" fill="#232323" stroke="#232323"/>
<rect x="173.76" y="494.151" width="117" height="14" fill="#232323" stroke="#232323"/>
<path d="M249.762 373.102C363.762 373.1 469.681 373.102 469.681 453.142" stroke="#232323" stroke-width="15"/>
<path d="M142.589 452.544C142.589 422.151 150.26 390.151 216.76 377.151" stroke="#232323" stroke-width="15"/>
<path d="M173.263 214.064C224.761 270.151 237.761 285.651 252.261 393.151M151.26 227.651C202.757 283.738 206.76 296.651 221.26 404.151" stroke="#232323" stroke-width="15"/>
<path d="M315.732 378.683C305.599 303.217 303.809 283.067 353.438 186.613M365.76 378.682C355.627 303.217 327.13 294.105 376.76 197.651" stroke="#232323" stroke-width="15"/>
<path d="M165.985 220.205C120.494 247.95 150.76 323.151 179.76 331.651" stroke="#232323" stroke-width="15"/>
<path d="M160.485 214.705C78.9851 235.205 106.985 321.205 180.985 331.705" stroke="#232323" stroke-width="15"/>
<path d="M160.212 217.548C108.651 204.104 79.5292 282.274 93.563 309.037" stroke="#232323" stroke-width="15"/>
<path d="M160.347 209.77C88.9806 165.394 49.401 247.631 93.2601 308.151" stroke="#232323" stroke-width="15"/>
<path d="M269.26 204.151C243.366 157.581 172.89 196.657 163.231 225.292" stroke="#232323" stroke-width="15"/>
<path d="M269.76 201.651C252.552 119.393 176.877 147.277 163.411 220.796" stroke="#232323" stroke-width="15"/>
<path d="M239.212 127.548C187.651 114.104 158.529 192.274 172.563 219.037" stroke="#232323" stroke-width="15"/>
<path d="M237.26 126.651C165.893 82.2743 125.578 155.281 169.437 215.801" stroke="#232323" stroke-width="15"/>
<path d="M149.756 211.682C135.043 160.468 52.9456 175.255 37.0718 200.97" stroke="#232323" stroke-width="15"/>
<path d="M156.516 207.834C158.322 123.815 67.9749 131.07 38.2599 199.651" stroke="#232323" stroke-width="15"/>
<path d="M366.434 191.219C322.56 160.98 268.501 224.512 272.555 254.459" stroke="#232323" stroke-width="15"/>
<path d="M369.216 183.955C317.287 117.88 251.697 180.794 272.26 252.651" stroke="#232323" stroke-width="15"/>
<path d="M366.508 184.864C357.777 132.299 274.524 137.555 255.801 161.277" stroke="#232323" stroke-width="15"/>
<path d="M373.666 181.819C385.113 98.5632 294.88 92.3907 257.483 157.103" stroke="#232323" stroke-width="15"/>
<path d="M429.26 288.151C461.238 245.528 390.752 187.929 360.666 190.776" stroke="#232323" stroke-width="15"/>
<path d="M427.227 290.193C495.335 240.962 437.471 171.451 364.845 189.109" stroke="#232323" stroke-width="15"/>
<path d="M480.888 220.338C472.156 167.773 388.903 173.029 370.18 196.75" stroke="#232323" stroke-width="15"/>
<path d="M480.76 218.151C492.207 134.896 409.259 127.864 371.862 192.576" stroke="#232323" stroke-width="15"/>
<path d="M367.605 172.926C408.379 138.622 361.424 69.6735 331.473 65.6551" stroke="#232323" stroke-width="15"/>
<path d="M373.873 177.531C451.337 144.945 407.997 64.8427 333.26 65.6505" stroke="#232323" stroke-width="15"/>
<line x1="159.143" y1="231.168" x2="174.143" y2="217.168" stroke="#232323" stroke-width="15"/>
<line x1="355.642" y1="186.957" x2="373.956" y2="196.208" stroke="#232323" stroke-width="15"/>
</svg>
